<svg xmlns="http://www.w3.org/2000/svg" viewBox="0 0 200 40" width="200" height="40" fill="none">
  
  <g transform="translate(0, 4) scale(1.16)">
    <path d="M13.1486 18.1501H13.1373C11.8028 18.1501 10.5496 17.633 9.60346 16.6914C8.65509 15.7476 8.13122 14.4898 8.12671 13.1531C8.12445 11.8141 8.64154 10.5563 9.5854 9.60796C10.5293 8.65733 11.787 8.13572 13.126 8.13121H13.1373C14.4695 8.13121 15.725 8.65055 16.6711 9.5899C17.6195 10.5338 18.1433 11.7915 18.1456 13.1305C18.1501 14.4695 17.6308 15.7272 16.6869 16.6756C15.7431 17.6217 14.4876 18.1478 13.1486 18.1501ZM26.2768 13.1079C26.2678 9.59893 24.8949 6.3022 22.4088 3.82739C19.9204 1.35259 16.6056 -0.0067489 13.1079 2.51968e-05C9.59895 0.0067993 6.30447 1.38194 3.82741 3.86804C1.35035 6.35639 -0.00898741 9.65764 4.47226e-05 13.1689C0.00681882 16.6779 1.38196 19.9746 3.86806 22.4494C6.34738 24.9197 9.63733 26.2768 13.1373 26.2768H13.1689C14.0992 26.2745 15.0115 26.1752 15.9011 25.9855C18.3353 29.0541 22.0926 30.9667 26.1955 30.9735V22.8446C25.0258 22.8423 23.9329 22.4313 23.0681 21.7381C25.1478 19.3423 26.2836 16.3143 26.2768 13.1079Z" fill="black"></path>
  </g>
  
  <text x="34" y="34" font-family="&#39;Red Hat Display&#39;, &#39;Red Hat Text&#39;, sans-serif" font-weight="900" font-size="36" fill="black">u</text>
  
  <line x1="68" y1="6" x2="68" y2="34" stroke="#DEDEDE" stroke-width="1.5"></line>
  
  <text x="76" y="33" font-family="&#39;Red Hat Text&#39;, sans-serif" font-weight="400" font-size="28" letter-spacing="3" fill="black">NOTIFY</text>
</svg>