<svg width="32" height="32" viewBox="0 0 32 32" fill="none" xmlns="http://www.w3.org/2000/svg">
<path d="M13.72 5.1467L2.42667 24C2.19383 24.4032 2.07065 24.8604 2.06935 25.326C2.06804 25.7916 2.18868 26.2495 2.41923 26.654C2.64977 27.0586 2.98229 27.3956 3.38361 27.6319C3.78492 27.8682 4.24109 27.995 4.70667 28H27.2933C27.7589 27.995 28.2151 27.8682 28.6164 27.6319C29.0177 27.3956 29.3503 27.0586 29.5808 26.654C29.8113 26.2495 29.932 25.7916 29.9307 25.326C29.9293 24.8604 29.8061 24.4032 29.5733 24L18.28 5.1467C18.0423 4.75485 17.7076 4.43086 17.3083 4.20601C16.9089 3.98117 16.4583 3.86304 16 3.86304C15.5417 3.86304 15.0911 3.98117 14.6917 4.20601C14.2924 4.43086 13.9577 4.75485 13.72 5.1467Z" stroke="black" stroke-width="2.66667" stroke-linecap="round" stroke-linejoin="round"/>
<path d="M16 12V17.3333" stroke="black" stroke-width="2.66667" stroke-linecap="round" stroke-linejoin="round"/>
<path d="M16 22.6666H16.0133" stroke="black" stroke-width="2.66667" stroke-linecap="round" stroke-linejoin="round"/>
</svg>
