<svg xmlns="http://www.w3.org/2000/svg" width="24" height="20" viewBox="0 0 24 20" fill="none">
  <path d="M 17.657 2.343 L 16.714 3.286 L 16.714 3.286 L 17.657 2.343 Z M 0 20 L -0.74 18.891 C -1.228 19.217 -1.446 19.824 -1.276 20.386 C -1.106 20.949 -0.588 21.333 0 21.333 L 0 20 Z M 24 20 L 24 21.333 C 24.588 21.333 25.106 20.949 25.276 20.386 C 25.446 19.824 25.228 19.217 24.74 18.891 L 24 20 Z M 20 8 L 21.333 8 C 21.333 5.525 20.35 3.151 18.6 1.4 L 17.657 2.343 L 16.714 3.286 C 17.964 4.536 18.667 6.232 18.667 8 L 20 8 Z M 17.657 2.343 L 18.6 1.4 C 16.849 -0.35 14.475 -1.333 12 -1.333 L 12 0 L 12 1.333 C 13.768 1.333 15.464 2.036 16.714 3.286 L 17.657 2.343 Z M 12 0 L 12 -1.333 C 9.525 -1.333 7.151 -0.35 5.4 1.4 L 6.343 2.343 L 7.286 3.286 C 8.536 2.036 10.232 1.333 12 1.333 L 12 0 Z M 6.343 2.343 L 5.4 1.4 C 3.65 3.151 2.667 5.525 2.667 8 L 4 8 L 5.333 8 C 5.333 6.232 6.036 4.536 7.286 3.286 L 6.343 2.343 Z M 4 8 L 2.667 8 C 2.667 12.47 1.711 15.246 0.829 16.862 C 0.387 17.673 -0.044 18.205 -0.343 18.521 C -0.493 18.679 -0.611 18.784 -0.682 18.843 C -0.717 18.872 -0.741 18.891 -0.751 18.898 C -0.756 18.902 -0.758 18.903 -0.756 18.902 C -0.755 18.901 -0.754 18.9 -0.751 18.898 C -0.749 18.897 -0.748 18.896 -0.746 18.895 C -0.745 18.894 -0.744 18.894 -0.743 18.893 C -0.742 18.892 -0.742 18.892 -0.741 18.892 C -0.74 18.891 -0.74 18.891 0 20 C 0.74 21.109 0.74 21.109 0.741 21.108 C 0.742 21.108 0.743 21.107 0.743 21.107 C 0.745 21.106 0.746 21.105 0.747 21.104 C 0.75 21.102 0.753 21.1 0.757 21.098 C 0.763 21.093 0.771 21.088 0.779 21.082 C 0.796 21.07 0.817 21.055 0.841 21.037 C 0.889 21.001 0.952 20.953 1.025 20.891 C 1.173 20.768 1.368 20.592 1.593 20.354 C 2.044 19.879 2.613 19.161 3.171 18.138 C 4.289 16.087 5.333 12.863 5.333 8 L 4 8 Z M 0 20 L 0 21.333 L 24 21.333 L 24 20 L 24 18.667 L 0 18.667 L 0 20 Z M 24 20 C 24.74 18.891 24.74 18.891 24.741 18.892 C 24.742 18.892 24.742 18.892 24.743 18.893 C 24.744 18.894 24.745 18.894 24.746 18.895 C 24.748 18.896 24.749 18.897 24.751 18.898 C 24.754 18.9 24.755 18.901 24.756 18.902 C 24.758 18.903 24.756 18.902 24.751 18.898 C 24.741 18.891 24.717 18.872 24.682 18.843 C 24.611 18.784 24.493 18.679 24.343 18.521 C 24.044 18.205 23.613 17.673 23.171 16.862 C 22.289 15.246 21.333 12.47 21.333 8 L 20 8 L 18.667 8 C 18.667 12.863 19.711 16.087 20.829 18.138 C 21.387 19.161 21.956 19.879 22.407 20.354 C 22.632 20.592 22.827 20.768 22.975 20.891 C 23.048 20.953 23.111 21.001 23.159 21.037 C 23.183 21.055 23.204 21.07 23.221 21.082 C 23.229 21.088 23.237 21.093 23.243 21.098 C 23.247 21.1 23.25 21.102 23.253 21.104 C 23.254 21.105 23.255 21.106 23.257 21.107 C 23.257 21.107 23.258 21.108 23.259 21.108 C 23.26 21.109 23.26 21.109 24 20 Z" fill="currentColor" fill-rule="nonzero"></path>
</svg>