<svg xmlns="http://www.w3.org/2000/svg" width="26.667" height="24" viewBox="0 0 26.667 24" fill="none">
  <path d="M 26.667 0 L 27.685 0.861 C 28.02 0.465 28.095 -0.09 27.876 -0.561 C 27.658 -1.032 27.186 -1.333 26.667 -1.333 L 26.667 0 Z M 0 0 L 0 -1.333 C -0.519 -1.333 -0.991 -1.032 -1.209 -0.561 C -1.428 -0.09 -1.353 0.465 -1.018 0.861 L 0 0 Z M 10.667 12.613 L 12 12.613 C 12 12.298 11.888 11.993 11.685 11.752 L 10.667 12.613 Z M 10.667 21.333 L 9.333 21.333 C 9.333 21.838 9.619 22.3 10.07 22.526 L 10.667 21.333 Z M 16 24 L 15.404 25.193 C 15.817 25.399 16.308 25.377 16.701 25.134 C 17.094 24.891 17.333 24.462 17.333 24 L 16 24 Z M 16 12.613 L 14.982 11.752 C 14.778 11.993 14.667 12.298 14.667 12.613 L 16 12.613 Z M 26.667 0 L 26.667 -1.333 L 0 -1.333 L 0 0 L 0 1.333 L 26.667 1.333 L 26.667 0 Z M 0 0 L -1.018 0.861 L 9.649 13.474 L 10.667 12.613 L 11.685 11.752 L 1.018 -0.861 L 0 0 Z M 10.667 12.613 L 9.333 12.613 L 9.333 21.333 L 10.667 21.333 L 12 21.333 L 12 12.613 L 10.667 12.613 Z M 10.667 21.333 L 10.07 22.526 L 15.404 25.193 L 16 24 L 16.596 22.807 L 11.263 20.141 L 10.667 21.333 Z M 16 24 L 17.333 24 L 17.333 12.613 L 16 12.613 L 14.667 12.613 L 14.667 24 L 16 24 Z M 16 12.613 L 17.018 13.474 L 27.685 0.861 L 26.667 0 L 25.649 -0.861 L 14.982 11.752 L 16 12.613 Z" fill="currentColor" fill-rule="nonzero"></path>
</svg>