<svg xmlns="http://www.w3.org/2000/svg" width="26.667" height="26.667" viewBox="0 0 26.667 26.667" fill="none">
  <path d="M 26.667 13.333 L 25.333 13.333 C 25.333 19.961 19.961 25.333 13.333 25.333 L 13.333 26.667 L 13.333 28 C 21.434 28 28 21.434 28 13.333 L 26.667 13.333 Z M 13.333 26.667 L 13.333 25.333 C 6.706 25.333 1.333 19.961 1.333 13.333 L 0 13.333 L -1.333 13.333 C -1.333 21.434 5.233 28 13.333 28 L 13.333 26.667 Z M 0 13.333 L 1.333 13.333 C 1.333 6.706 6.706 1.333 13.333 1.333 L 13.333 0 L 13.333 -1.333 C 5.233 -1.333 -1.333 5.233 -1.333 13.333 L 0 13.333 Z M 13.333 0 L 13.333 1.333 C 19.961 1.333 25.333 6.706 25.333 13.333 L 26.667 13.333 L 28 13.333 C 28 5.233 21.434 -1.333 13.333 -1.333 L 13.333 0 Z" fill="currentColor" fill-rule="nonzero"></path>
</svg>