<svg xmlns="http://www.w3.org/2000/svg" width="8" height="5.333" viewBox="0 0 8 5.333" fill="none">
  <path d="M 0.943 1.724 C 0.422 1.203 -0.422 1.203 -0.943 1.724 C -1.464 2.245 -1.464 3.089 -0.943 3.609 L 0 2.667 L 0.943 1.724 Z M 2.667 5.333 L 1.724 6.276 C 2.245 6.797 3.089 6.797 3.609 6.276 L 2.667 5.333 Z M 8.943 0.943 C 9.464 0.422 9.464 -0.422 8.943 -0.943 C 8.422 -1.464 7.578 -1.464 7.057 -0.943 L 8 0 L 8.943 0.943 Z M 0 2.667 L -0.943 3.609 L 1.724 6.276 L 2.667 5.333 L 3.609 4.391 L 0.943 1.724 L 0 2.667 Z M 2.667 5.333 L 3.609 6.276 L 8.943 0.943 L 8 0 L 7.057 -0.943 L 1.724 4.391 L 2.667 5.333 Z" fill="currentColor" fill-rule="nonzero"></path>
</svg>