<svg width="24" height="24" viewBox="0 0 24 24" fill="none" xmlns="http://www.w3.org/2000/svg">
<path d="M9 3H4C3.4477 3 3 3.4477 3 4V9C3 9.5523 3.4477 10 4 10H9C9.5523 10 10 9.5523 10 9V4C10 3.4477 9.5523 3 9 3Z" stroke="black" stroke-width="2" stroke-linecap="round" stroke-linejoin="round"/>
<path d="M19.9999 3H15C14.4477 3 13.9999 3.4477 13.9999 4V9C13.9999 9.5523 14.4477 10 15 10H19.9999C20.5523 10 21 9.5523 21 9V4C21 3.4477 20.5523 3 19.9999 3Z" stroke="black" stroke-width="2" stroke-linecap="round" stroke-linejoin="round"/>
<path d="M19.9999 14H15C14.4477 14 13.9999 14.4477 13.9999 15V20C13.9999 20.5523 14.4477 21 15 21H19.9999C20.5523 21 21 20.5523 21 20V15C21 14.4477 20.5523 14 19.9999 14Z" stroke="black" stroke-width="2" stroke-linecap="round" stroke-linejoin="round"/>
<path d="M9 14H4C3.4477 14 3 14.4477 3 15V20C3 20.5523 3.4477 21 4 21H9C9.5523 21 10 20.5523 10 20V15C10 14.4477 9.5523 14 9 14Z" stroke="black" stroke-width="2" stroke-linecap="round" stroke-linejoin="round"/>
</svg>
