<svg width="24" height="24" viewBox="0 0 24 24" fill="none" xmlns="http://www.w3.org/2000/svg">
<path d="M3 7V5C3 4.4696 3.2107 3.9609 3.5858 3.5858C3.9609 3.2107 4.4696 3 5 3H7" stroke="black" stroke-width="2" stroke-linecap="round" stroke-linejoin="round"/>
<path d="M16.9999 3H19C19.5304 3 20.0391 3.2107 20.4142 3.5858C20.7893 3.9609 21 4.4696 21 5V7" stroke="black" stroke-width="2" stroke-linecap="round" stroke-linejoin="round"/>
<path d="M21 17V19C21 19.5305 20.7893 20.0391 20.4142 20.4142C20.0391 20.7893 19.5304 21 19 21H16.9999" stroke="black" stroke-width="2" stroke-linecap="round" stroke-linejoin="round"/>
<path d="M7 21H5C4.4696 21 3.9609 20.7893 3.5858 20.4142C3.2107 20.0391 3 19.5305 3 19V17" stroke="black" stroke-width="2" stroke-linecap="round" stroke-linejoin="round"/>
<path d="M8 14C8 14 9.5 16 12 16C14.5 16 16 14 16 14" stroke="black" stroke-width="2" stroke-linecap="round" stroke-linejoin="round"/>
<path d="M9 9H9.01" stroke="black" stroke-width="2" stroke-linecap="round" stroke-linejoin="round"/>
<path d="M15 9H15.01" stroke="black" stroke-width="2" stroke-linecap="round" stroke-linejoin="round"/>
</svg>
