<svg xmlns="http://www.w3.org/2000/svg" width="21.333" height="14.667" viewBox="0 0 21.333 14.667" fill="none">
  <path d="M 22.276 0.943 C 22.797 0.422 22.797 -0.422 22.276 -0.943 C 21.755 -1.464 20.911 -1.464 20.391 -0.943 L 21.333 0 L 22.276 0.943 Z M 6.667 14.667 L 5.724 15.609 C 6.245 16.13 7.089 16.13 7.609 15.609 L 6.667 14.667 Z M 0.943 7.057 C 0.422 6.536 -0.422 6.536 -0.943 7.057 C -1.464 7.578 -1.464 8.422 -0.943 8.943 L 0 8 L 0.943 7.057 Z M 21.333 0 L 20.391 -0.943 L 5.724 13.724 L 6.667 14.667 L 7.609 15.609 L 22.276 0.943 L 21.333 0 Z M 6.667 14.667 L 7.609 13.724 L 0.943 7.057 L 0 8 L -0.943 8.943 L 5.724 15.609 L 6.667 14.667 Z" fill="currentColor" fill-rule="nonzero"></path>
</svg>