<svg width="24" height="24" viewBox="0 0 24 24" fill="none" xmlns="http://www.w3.org/2000/svg">
<path d="M10.733 5.076C13.0624 4.7984 15.4186 5.2908 17.4419 6.478C19.4651 7.6653 21.0443 9.4821 21.938 11.651C22.0213 11.8755 22.0213 12.1225 21.938 12.347C21.5705 13.238 21.0848 14.0755 20.494 14.837" stroke="black" stroke-width="2" stroke-linecap="round" stroke-linejoin="round"/>
<path d="M14.084 14.158C13.5182 14.7045 12.7604 15.0069 11.9738 15C11.1872 14.9932 10.4348 14.6777 9.8786 14.1215C9.3224 13.5652 9.0068 12.8128 9 12.0262C8.9932 11.2397 9.2956 10.4818 9.842 9.916" stroke="black" stroke-width="2" stroke-linecap="round" stroke-linejoin="round"/>
<path d="M17.4791 17.499C16.1525 18.2848 14.6725 18.776 13.1394 18.9394C11.6062 19.1028 10.056 18.9345 8.5937 18.4459C7.1313 17.9573 5.7912 17.1599 4.6642 16.1077C3.5372 15.0556 2.6498 13.7734 2.062 12.348C1.9787 12.1235 1.9787 11.8765 2.062 11.652C2.9486 9.5019 4.5087 7.6973 6.508 6.509" stroke="black" stroke-width="2" stroke-linecap="round" stroke-linejoin="round"/>
<path d="M2 2L22 22" stroke="black" stroke-width="2" stroke-linecap="round" stroke-linejoin="round"/>
</svg>
