<svg width="24" height="24" viewBox="0 0 24 24" fill="none" xmlns="http://www.w3.org/2000/svg">
<path d="M12.0002 17C12.5525 17 13.0003 16.5523 13.0003 16C13.0003 15.4478 12.5525 15 12.0002 15C11.4479 15 11.0002 15.4478 11.0002 16C11.0002 16.5523 11.4479 17 12.0002 17Z" stroke="black" stroke-width="2" stroke-linecap="round" stroke-linejoin="round"/>
<path d="M19 10H5C3.8954 10 3 10.8955 3 12V20C3 21.1045 3.8954 22 5 22H19C20.1046 22 21 21.1045 21 20V12C21 10.8955 20.1046 10 19 10Z" stroke="black" stroke-width="2" stroke-linecap="round" stroke-linejoin="round"/>
<path d="M6.9998 10V7C6.9998 5.6739 7.5265 4.4021 8.4642 3.4644C9.4019 2.5268 10.6737 2 11.9998 2C13.3259 2 14.5976 2.5268 15.5353 3.4644C16.473 4.4021 16.9997 5.6739 16.9997 7V10" stroke="black" stroke-width="2" stroke-linecap="round" stroke-linejoin="round"/>
</svg>
