<svg width="24" height="24" viewBox="0 0 24 24" fill="none" xmlns="http://www.w3.org/2000/svg">
<path d="M16.5 9.4L7.55 4.24" stroke="black" stroke-width="2" stroke-linecap="round" stroke-linejoin="round"/>
<path d="M21 16V8C20.9996 7.6493 20.9071 7.3048 20.7315 7.0012C20.556 6.6975 20.3037 6.4454 20 6.27L13 2.27C12.696 2.0945 12.3511 2.0021 12 2.0021C11.6489 2.0021 11.304 2.0945 11 2.27L4 6.27C3.6963 6.4454 3.444 6.6975 3.2685 7.0012C3.0929 7.3048 3.0004 7.6493 3 8V16C3.0004 16.3507 3.0929 16.6952 3.2685 16.9988C3.444 17.3025 3.6963 17.5546 4 17.73L11 21.73C11.304 21.9055 11.6489 21.998 12 21.998C12.3511 21.998 12.696 21.9055 13 21.73L20 17.73C20.3037 17.5546 20.556 17.3025 20.7315 16.9988C20.9071 16.6952 20.9996 16.3507 21 16Z" stroke="black" stroke-width="2" stroke-linecap="round" stroke-linejoin="round"/>
<path d="M3.27 6.96L12 12.01L20.73 6.96" stroke="black" stroke-width="2" stroke-linecap="round" stroke-linejoin="round"/>
<path d="M12 22.08V12" stroke="black" stroke-width="2" stroke-linecap="round" stroke-linejoin="round"/>
</svg>
