<svg xmlns="http://www.w3.org/2000/svg" width="21.333" height="21.333" viewBox="0 0 21.333 21.333" fill="none">
  <path d="M 21.333 10.667 L 20 10.667 C 20 15.821 15.821 20 10.667 20 L 10.667 21.333 L 10.667 22.667 C 17.294 22.667 22.667 17.294 22.667 10.667 L 21.333 10.667 Z M 10.667 21.333 L 10.667 20 C 5.512 20 1.333 15.821 1.333 10.667 L 0 10.667 L -1.333 10.667 C -1.333 17.294 4.039 22.667 10.667 22.667 L 10.667 21.333 Z M 0 10.667 L 1.333 10.667 C 1.333 5.512 5.512 1.333 10.667 1.333 L 10.667 0 L 10.667 -1.333 C 4.039 -1.333 -1.333 4.039 -1.333 10.667 L 0 10.667 Z M 10.667 0 L 10.667 1.333 C 15.821 1.333 20 5.512 20 10.667 L 21.333 10.667 L 22.667 10.667 C 22.667 4.039 17.294 -1.333 10.667 -1.333 L 10.667 0 Z" fill="currentColor" fill-rule="nonzero"></path>
</svg>