<svg width="32" height="32" viewBox="0 0 32 32" fill="none" xmlns="http://www.w3.org/2000/svg">
<path d="M20 28V21.3333C20 20.9797 19.8595 20.6406 19.6095 20.3905C19.3594 20.1405 19.0203 20 18.6667 20H13.3333C12.9797 20 12.6406 20.1405 12.3905 20.3905C12.1405 20.6406 12 20.9797 12 21.3333V28" stroke="black" stroke-width="2.67" stroke-linecap="round" stroke-linejoin="round"/>
<path d="M23.6986 13.7467C23.4207 13.4806 23.0508 13.3321 22.666 13.3321C22.2812 13.3321 21.9113 13.4806 21.6333 13.7467C21.0133 14.338 20.1894 14.6679 19.3326 14.6679C18.4759 14.6679 17.652 14.338 17.032 13.7467C16.7541 13.481 16.3844 13.3327 16 13.3327C15.6155 13.3327 15.2459 13.481 14.968 13.7467C14.3479 14.3384 13.5238 14.6686 12.6666 14.6686C11.8095 14.6686 10.9854 14.3384 10.3653 13.7467C10.0874 13.4806 9.71743 13.3321 9.33264 13.3321C8.94786 13.3321 8.57793 13.4806 8.29998 13.7467C7.7011 14.3182 6.91101 14.6464 6.08348 14.6674C5.25595 14.6884 4.4502 14.4008 3.82305 13.8605C3.19591 13.3202 2.79224 12.5659 2.69062 11.7443C2.58901 10.9228 2.79671 10.0928 3.27331 9.41601L7.12531 3.83734C7.36972 3.47669 7.69877 3.18141 8.08368 2.97733C8.46859 2.77325 8.89764 2.66659 9.33331 2.66667H22.6666C23.101 2.66651 23.5289 2.77246 23.913 2.97532C24.2971 3.17819 24.6259 3.47181 24.8706 3.83067L28.7306 9.42001C29.2074 10.0974 29.4148 10.928 29.3125 11.7499C29.2103 12.5719 28.8057 13.3263 28.1775 13.8663C27.5494 14.4062 26.7427 14.6929 25.9147 14.6706C25.0867 14.6482 24.2967 14.3184 23.6986 13.7453" stroke="black" stroke-width="2.67" stroke-linecap="round" stroke-linejoin="round"/>
<path d="M5.33337 14.6V25.3333C5.33337 26.0406 5.61433 26.7189 6.11442 27.219C6.61452 27.7191 7.2928 28 8.00004 28H24C24.7073 28 25.3856 27.7191 25.8857 27.219C26.3858 26.7189 26.6667 26.0406 26.6667 25.3333V14.6" stroke="black" stroke-width="2.67" stroke-linecap="round" stroke-linejoin="round"/>
</svg>
