<svg xmlns="http://www.w3.org/2000/svg" width="29.333" height="16" viewBox="0 0 29.333 16" fill="none">
  <path d="M 30.276 0.943 C 30.797 0.422 30.797 -0.422 30.276 -0.943 C 29.755 -1.464 28.911 -1.464 28.391 -0.943 L 29.333 0 L 30.276 0.943 Z M 16.667 12.667 L 15.724 13.609 C 16.245 14.13 17.089 14.13 17.609 13.609 L 16.667 12.667 Z M 10 6 L 10.943 5.057 C 10.422 4.536 9.578 4.536 9.057 5.057 L 10 6 Z M -0.943 15.057 C -1.464 15.578 -1.464 16.422 -0.943 16.943 C -0.422 17.464 0.422 17.464 0.943 16.943 L 0 16 L -0.943 15.057 Z M 29.333 0 L 28.391 -0.943 L 15.724 11.724 L 16.667 12.667 L 17.609 13.609 L 30.276 0.943 L 29.333 0 Z M 16.667 12.667 L 17.609 11.724 L 10.943 5.057 L 10 6 L 9.057 6.943 L 15.724 13.609 L 16.667 12.667 Z M 10 6 L 9.057 5.057 L -0.943 15.057 L 0 16 L 0.943 16.943 L 10.943 6.943 L 10 6 Z" fill="currentColor" fill-rule="nonzero"></path>
</svg>