<svg xmlns="http://www.w3.org/2000/svg" width="29.333" height="16" viewBox="0 0 29.333 16" fill="none">
  <path d="M 28.391 16.943 C 28.911 17.464 29.755 17.464 30.276 16.943 C 30.797 16.422 30.797 15.578 30.276 15.057 L 29.333 16 L 28.391 16.943 Z M 16.667 3.333 L 17.609 2.391 C 17.089 1.87 16.245 1.87 15.724 2.391 L 16.667 3.333 Z M 10 10 L 9.057 10.943 C 9.578 11.464 10.422 11.464 10.943 10.943 L 10 10 Z M 0.943 -0.943 C 0.422 -1.464 -0.422 -1.464 -0.943 -0.943 C -1.464 -0.422 -1.464 0.422 -0.943 0.943 L 0 0 L 0.943 -0.943 Z M 29.333 16 L 30.276 15.057 L 17.609 2.391 L 16.667 3.333 L 15.724 4.276 L 28.391 16.943 L 29.333 16 Z M 16.667 3.333 L 15.724 2.391 L 9.057 9.057 L 10 10 L 10.943 10.943 L 17.609 4.276 L 16.667 3.333 Z M 10 10 L 10.943 9.057 L 0.943 -0.943 L 0 0 L -0.943 0.943 L 9.057 10.943 L 10 10 Z" fill="currentColor" fill-rule="nonzero"></path>
</svg>