<svg width="24" height="24" viewBox="0 0 24 24" fill="none" xmlns="http://www.w3.org/2000/svg">
<path d="M2.062 12.348C1.9787 12.1235 1.9787 11.8765 2.062 11.652C2.8737 9.6838 4.2515 8.001 6.0208 6.8169C7.79 5.6328 9.8711 5.0006 12 5.0006C14.1289 5.0006 16.21 5.6328 17.9792 6.8169C19.7485 8.001 21.1263 9.6838 21.938 11.652C22.0213 11.8765 22.0213 12.1235 21.938 12.348C21.1263 14.3162 19.7485 15.9989 17.9792 17.1831C16.21 18.3673 14.1289 18.9994 12 18.9994C9.8711 18.9994 7.79 18.3673 6.0208 17.1831C4.2515 15.9989 2.8737 14.3162 2.062 12.348Z" stroke="black" stroke-width="2" stroke-linecap="round" stroke-linejoin="round"/>
<path d="M12 15C13.6568 15 15 13.6568 15 12C15 10.3432 13.6568 9 12 9C10.3432 9 9 10.3432 9 12C9 13.6568 10.3432 15 12 15Z" stroke="black" stroke-width="2" stroke-linecap="round" stroke-linejoin="round"/>
</svg>
